<?xml version="1.0" encoding="utf-8"?>
<!-- Generator: Adobe Illustrator 19.1.1, SVG Export Plug-In . SVG Version: 6.00 Build 0)  -->
<svg version="1.1" id="Layer_1" xmlns="http://www.w3.org/2000/svg" xmlns:xlink="http://www.w3.org/1999/xlink" x="0px" y="0px"
	 viewBox="0 0 1199.8 971.5" style="enable-background:new 0 0 1199.8 971.5;" xml:space="preserve">
<style type="text/css">
	.st0{fill:none;stroke:#FFFFFF;stroke-width:2;stroke-linecap:round;stroke-linejoin:round;stroke-miterlimit:10;}
	.st1{fill:#6A8D9B;}
	.st2{fill:#00B1B7;}
	.st3{fill:#FCB017;}
	.st4{fill:#38BEB7;}
	.st5{fill:#72923C;}
	.st6{fill:#273C45;}
</style>
<g>
	<path class="st0" d="M577.3,396.8"/>
</g>
<g>
	<path class="st1" d="M311.3,480c-8.3-26.6-12.6-54.5-12.6-83.2c0-48.4,12.3-94.9,35.3-136c-8-8.4-16.6-18.1-25.3-28.6
		c-30.2,49-46.3,105.6-46.3,164.6c0,52.1,12.6,102.2,36.2,146.9c3.4-6.1,5.8-12.6,5.8-26.3C304.5,506.1,307.3,493,311.3,480z"/>
</g>
<g>
	<path class="st1" d="M380.4,199.9c34.4-34.4,76.1-58.6,121.7-71.4c0-15.1-0.9-27.4-1.2-31.9c-0.7-1.7-1.3-3.3-1.8-4.8
		c-54.1,13.8-103.8,41.9-144.3,82.4c-2.4,2.4-4.7,4.8-7,7.3c7.9,5.1,19.2,11.6,32.2,18.8C380,200.2,380.2,200,380.4,199.9z"/>
</g>
<g>
	<path class="st1" d="M805.8,209.8c-1.4,6.1-3.5,12.7-6.5,18.7c36.7,48.2,56.6,106.7,56.6,168.3c0,61.5-19.8,120-56.5,168.2
		c-3.1,8.2-6.8,16.4-11,25.3c-7.1,15.2-3.1,26,2.1,38.2c3.2-2.9,6.3-5.9,9.4-9c59.5-59.5,92.2-138.5,92.2-222.6
		c0-67.6-21.1-131.9-60.3-185.4c-4.4,3.7-9.1,4.3-11.6,4.3C814.2,215.8,809.2,212.8,805.8,209.8z"/>
</g>
<g>
	<path class="st1" d="M380.4,593.8c-2.7-2.7-5.3-5.4-7.8-8.2c-0.2,0.7-0.4,1.3-0.5,1.9c-1.1,4.9-0.3,18.7,0.3,31
		c0.3,6.5,0.6,12.5,0.8,18c31.9,27.3,68.5,47.6,107.8,60.2c2.3-10.2,4.5-22.1,5.8-36.3C447.1,646.8,410.8,624.3,380.4,593.8z"/>
</g>
<g>
	<path class="st1" d="M711.6,672.7c-2.8-12.8-4.4-21.4-4.8-29.1c-13.9,7.3-28.3,13.4-43.2,18.2c2.8,10.8-0.2,17.8-3.2,21.7
		c-3.1,4.1-9.3,8.9-21.1,8.9c-6.3,0-13-1.4-18.1-2.7c-5.1,3.7-11.4,5.6-18.5,5.6c-5.2,0-10.6-1.1-15.5-2.6
		c1.7,5.2,4.6,11.2,9.1,18.3c40.7-2.4,79.9-12.5,116-29.6C712.4,678.7,712.3,675.8,711.6,672.7z"/>
</g>
<g>
	<path class="st2" d="M775,290.9c1.1,2.6,2.1,5.2,3.1,7.8c1.3,3,2.7,6.1,3.9,8.6c6.3,13.8,12.7,28,12.7,39.1
		c0,9.1,10.5,48.4,17.9,73.4l0.3,0.8l0.1,0.9c2,12.7-1.6,19.2-5.4,24.7c-2.4,3.6-5.5,8-1.3,32c1.7,9.7,2.7,18.4,3.1,26.5
		c12.6-28.7,19.6-60.4,19.6-93.8c0-56.4-20-108.1-53.3-148.5c-0.5,8.9-1,20.8-1.1,26.6C774.6,289.7,774.8,290.3,775,290.9z"/>
</g>
<g>
	<path class="st2" d="M486.1,601.7c-21.5-7.1-41.6-17.2-59.9-29.9c17.6,18.5,38.2,34.1,61,46.1c0-0.3,0-0.6,0-0.8
		C486.9,611.5,486.5,606.4,486.1,601.7z"/>
</g>
<g>
	<path class="st2" d="M706.4,590.1c-2.1-6.5-4.6-14.2-6.9-23.5c-23.5,17.7-50.3,31-79.5,38.8c1.2,2.2,2.4,4.4,3.6,6.6
		c1.2,2.2,2.4,4.4,3.6,6.5c2.8,5.1,6.6,7.6,11.8,11.1c3.4,2.3,7.3,4.9,11.1,8.5c21.7-5.2,42.1-13.4,61-24.1
		C712,607.8,710.2,601.7,706.4,590.1z"/>
</g>
<g>
	<path class="st3" d="M506.6,195.2c-4.6-7.6-7.7-19-6-36c0.2-1.8,0.3-3.6,0.5-5.4c-39,10-74.2,29.8-102.5,56.7
		c14.8,7.9,30.4,16.1,44.8,23.5C462.2,217.9,483.5,204.8,506.6,195.2z"/>
</g>
<g>
	<path class="st3" d="M358.4,301.7c3.1-4,6.4-7.4,9.6-10.2c-5.2-3.7-11.2-8.6-18.1-14.9c-15.4,31.2-24.1,66.3-24.1,103.5
		c0,17.5,1.9,34.6,5.6,51.1c3.9-7.9,7.3-14.3,9.4-18.2C332.9,364.1,338.8,326.7,358.4,301.7z"/>
</g>
<g>
	<path class="st3" d="M390.8,532.9c0,2.6-0.4,5.2-0.8,7.8c11,11.6,23.2,22,36.3,31.1c-12.5-13.1-23.4-27.7-32.6-43.4
		C392.2,530.2,391.1,531.8,390.8,532.9z"/>
</g>
<g>
	<path class="st4" d="M692,525.8c-18.8,16.8-38.3,18.4-39.4,18.4l-0.4,0h-39.7c-3.3,5.4-7.2,13.7-7.2,21.7
		c0,11.2,7.2,25.7,14.6,39.3c29.1-7.8,56-21.2,79.5-38.8c-0.9-3.6-1.7-7.4-2.5-11.5C694.8,544.2,693.3,534.4,692,525.8z"/>
</g>
<g>
	<path class="st5" d="M692,525.8c-18.8,16.8-38.3,18.4-39.4,18.4l-0.4,0h-39.7c-3.3,5.4-7.2,13.7-7.2,21.7
		c0,11.2,7.2,25.7,14.6,39.3c29.1-7.8,56-21.2,79.5-38.8c-0.9-3.6-1.7-7.4-2.5-11.5C694.8,544.2,693.3,534.4,692,525.8z"/>
</g>
<g>
	<path class="st4" d="M480.4,559.2c-2.3-13.6-4.2-24.4-3.3-39.2c0.5-8.2-1.4-10.6-20.6-13.4c-3.2-0.5-6.5-0.9-9.5-1.6
		c-7.2-1.6-12.5-5.6-16.5-9.8c-3.9,3.8-8.9,8-14.9,13c-5.9,4.9-16.7,13.9-22,20.2c9.2,15.7,20.1,30.3,32.6,43.4
		c18.2,12.7,38.4,22.8,59.9,29.9C484.5,582.7,482.3,569.9,480.4,559.2z"/>
</g>
<g>
	<path class="st5" d="M480.4,559.2c-2.3-13.6-4.2-24.4-3.3-39.2c0.5-8.2-1.4-10.6-20.6-13.4c-3.2-0.5-6.5-0.9-9.5-1.6
		c-7.2-1.6-12.5-5.6-16.5-9.8c-3.9,3.8-8.9,8-14.9,13c-5.9,4.9-16.7,13.9-22,20.2c9.2,15.7,20.1,30.3,32.6,43.4
		c18.2,12.7,38.4,22.8,59.9,29.9C484.5,582.7,482.3,569.9,480.4,559.2z"/>
</g>
<g>
	<path class="st4" d="M775,290.9c0.6,2,1.8,4.8,3.1,7.8C777.1,296.2,776.1,293.5,775,290.9z"/>
</g>
<g>
	<path class="st3" d="M775,290.9c0.6,2,1.8,4.8,3.1,7.8C777.1,296.2,776.1,293.5,775,290.9z"/>
</g>
<g>
	<path class="st4" d="M533.9,234.3c6.5,0,12.1,0.1,16.6,0.2c2.7,0.1,5,0.1,6.7,0.1c3.7,0,8.1,0.5,12.7,0.9c0,0,0,0,0,0
		c-10.6-15.2-13.4-29.7-14.9-43c-11.4,14.5-21.2,17.1-24.5,17.6l-2.1,0.3l-2.1-0.4c-0.8-0.1-12.2-2.4-19.7-14.9
		c-23.2,9.5-44.5,22.7-63.2,38.8c6.6,3.4,13,6.6,18.9,9.6C480.7,237.3,504.2,234.3,533.9,234.3z"/>
</g>
<g>
	<path class="st5" d="M533.9,234.3c6.5,0,12.1,0.1,16.6,0.2c2.7,0.1,5,0.1,6.7,0.1c3.7,0,8.1,0.5,12.7,0.9c0,0,0,0,0,0
		c-10.6-15.2-13.4-29.7-14.9-43c-11.4,14.5-21.2,17.1-24.5,17.6l-2.1,0.3l-2.1-0.4c-0.8-0.1-12.2-2.4-19.7-14.9
		c-23.2,9.5-44.5,22.7-63.2,38.8c6.6,3.4,13,6.6,18.9,9.6C480.7,237.3,504.2,234.3,533.9,234.3z"/>
</g>
<g>
	<path class="st6" d="M397.9,289.5c0,0-63.7,11.8-43.6,125.7c0,0-36.9,63.7-36.9,102.2s-18.4,34.2-18.4,67.4s6.7,70.1,0,96.9
		c-6.7,26.8,6.7,43.6,18.4,45.2c11.7,1.7,20.1-10.1,20.1-10.1s15.1,15.1,26.8,0c0,0,21.8-3.4,15.1-16.8
		c-6.7-13.4-28.5-13.4-21.8-30.2c6.7-16.8-1.7-69.7,1.7-85.1c3.4-15.4,18.4-35.5,18.4-52.3s46.9-43.6,50.3-55.3
		c3.4-11.7,6.7,11.7,21.8,15.1s41.9,1.7,40.2,28.5s6.7,38.5,10.1,95.5s-8.4,89.1-13.4,110.8c-5,21.6,6.2,35,14,38.4s17.8,3.4,31.2,0
		c13.4-3.4,38.5,16.8,49.4,2.5c10.9-14.2,22.6-22.6,7.5-44.4s-18.4-36.9-16.8-52c0,0,33.5,21.8,45.2,3.4c0,0,40.2,15.1,33.5-10.1
		c-6.7-25.1-25.1-21.8-35.2-40.2c-10.1-18.4-23.5-40.2-23.5-58.7s13.4-34.7,13.4-34.7h46c0,0,31.1-2.2,49.5-39
		c0,0,1.7,25.1,8.4,60.3c6.7,35.2,18.4,48.6,13.4,67c-5,18.4-4.3,25.1,1.2,50.3s-13.9,38.5,0,53.6c13.9,15.1,34,38.5,59.1,28.5
		c25.1-10.1,58.7-6.7,52-21.8s-38.5-25.4-43.6-37c-5-11.6-6.7-20-6.7-38.4s-23.5-37.9-8.4-70.1s25.1-55.6,16.8-104.2
		s10.1-35.2,6.7-57c0,0-18.4-62-18.4-77.1s-20.1-46.9-20.1-57c0-10.1,1.7-38.5,1.7-38.5s1.7-8.4,13.4-15.1s18.4-30.2,18.4-43.6
		s0-13.4,0-13.4l16.8,18.4c0,0,10.1,13.4,15.1-1.7c5-15.1,10.1-44.9,31.8-67.7c21.8-22.8,28.5-37.9,8.4-49.6
		c-20.1-11.7-73.7-57-80.4-57c-6.7,0-16.8-6.3-31.8,14.5c0,0-68.7-30.8-129,0c0,0-13.2-12.4-37.6,0c-24.4,12.4-69.6,20.7-69.6,20.7
		s-20.1,1.7-5,36.9c0,0,3.4,33.5,0,67s15.1,36.9,15.1,36.9s11.7-1.7,25.1-26.8c13.4-25.1,13.4-25.1,13.4-25.1s-1.7,20.3,0,38.7
		c1.7,18.3,3.5,35.1,21,53.5c17.5,18.4-17.7,10.1-31.1,10.1c-13.4,0-62-3.4-95.5,10.1c0,0-114-56.8-132.4-73.6
		c-18.4-16.9-27-33.3-31.9-56.1c-1.7-7.9-3.7-16.4-10-21.6c-27.9,33.1-0.6,77.6,21.6,105.3C321.7,227.9,375.1,293.7,397.9,289.5z"/>
</g>
<g>
	<path class="st3" d="M25.3,838.6c0-6,3.2-9.2,9.2-9.2h54.9c6,0,9.2,3.2,9.2,9.2v6.7c0,6-3.2,9.2-9.2,9.2H54.6v25.1h27.3
		c6,0,9.2,3.2,9.2,9.2v6.7c0,6-3.2,9.2-9.2,9.2H54.6v35.1c0,6-3.2,9.2-9.2,9.2H34.5c-6,0-9.2-3.2-9.2-9.2V838.6z"/>
	<path class="st3" d="M113,838.6c0-6,3.2-9.2,9.2-9.2h56.6c6,0,9.2,3.2,9.2,9.2v6.7c0,6-3.2,9.2-9.2,9.2h-36.5v21.8h27.3
		c6,0,9.2,3.2,9.2,9.2v6.7c0,6-3.2,9.2-9.2,9.2h-27.3v22.6h38.8c6,0,9.2,3.2,9.2,9.2v6.7c0,6-3.2,9.2-9.2,9.2h-58.9
		c-6,0-9.2-3.2-9.2-9.2V838.6z"/>
	<path class="st3" d="M232,836.9c1.7-5.2,5-7.5,10.4-7.5h15.1c5.4,0,8.7,2.3,10.4,7.5l34.6,101.6c2.2,6.4-0.8,10.5-7.5,10.5h-11
		c-5.4,0-8.7-2.5-10.4-7.7l-5-17.4h-37.3l-5,17.4c-1.5,5.2-4.9,7.7-10.2,7.7h-11c-6.7,0-9.7-4.2-7.5-10.5L232,836.9z M261.6,900.5
		l-6.7-23.3c-2.2-7.5-4.9-20.6-4.9-20.6h-0.3c0,0-2.7,13.1-4.9,20.6l-6.9,23.3H261.6z"/>
	<path class="st3" d="M316.1,838.6c0-6,3.2-9.2,9.2-9.2h32.5c12.2,0,18.1,0.8,23.3,2.8c13.6,5.2,22.1,17.4,22.1,34.8
		c0,12.7-6,26.6-17.9,32.6v0.3c0,0,1.7,2.2,4.5,7.2l17.1,30.8c3.7,6.4,0.8,11-6.4,11h-12.7c-5,0-8.4-2-10.9-6.5l-17.7-33.8h-13.7
		v31.1c0,6-3.2,9.2-9.2,9.2h-10.9c-6,0-9.2-3.2-9.2-9.2V838.6z M358.1,883.6c9.4,0,15.2-5.2,15.2-14.7c0-6-1.5-10.5-7-12.7
		c-2.7-1.2-6.2-1.7-11-1.7h-9.9v29.1H358.1z"/>
	<path class="st3" d="M423.2,838.6c0-6,3.2-9.2,9.2-9.2h10.9c6,0,9.2,3.2,9.2,9.2v85.3h39.7c6,0,9.2,3.2,9.2,9.2v6.7
		c0,6-3.2,9.2-9.2,9.2h-59.7c-6,0-9.2-3.2-9.2-9.2V838.6z"/>
	<path class="st3" d="M513.4,838.6c0-6,3.2-9.2,9.2-9.2h56.6c6,0,9.2,3.2,9.2,9.2v6.7c0,6-3.2,9.2-9.2,9.2h-36.5v21.8H570
		c6,0,9.2,3.2,9.2,9.2v6.7c0,6-3.2,9.2-9.2,9.2h-27.3v22.6h38.8c6,0,9.2,3.2,9.2,9.2v6.7c0,6-3.2,9.2-9.2,9.2h-58.9
		c-6,0-9.2-3.2-9.2-9.2V838.6z"/>
	<path class="st3" d="M603.3,926.4l5.2-7.5c3.3-4.9,7.2-5.2,12.7-2.2c3.8,2,11.4,7.4,21.8,7.4c8.7,0,12.7-3.7,12.7-8.4
		c0-16.9-52.9-14.2-52.9-51.7c0-22.1,18.4-36.6,42.7-36.6c13.9,0,26.6,4.9,32.3,8.9c4.9,3.5,5.4,7.7,2.8,12.6l-4,7.9
		c-3.3,6.5-7.9,5.5-12.5,3.2c-5.5-2.7-11-5.5-18.9-5.5c-9.2,0-13.1,3.7-13.1,8.4c0,17.4,52.9,13.2,52.9,51c0,20.1-15.1,37.3-42,37.3
		c-16.7,0-31.6-6.9-38-11.9C601.4,936.3,598.9,932.6,603.3,926.4z"/>
	<path class="st3" d="M698.2,926.4l5.2-7.5c3.3-4.9,7.2-5.2,12.7-2.2c3.8,2,11.4,7.4,21.8,7.4c8.7,0,12.7-3.7,12.7-8.4
		c0-16.9-52.9-14.2-52.9-51.7c0-22.1,18.4-36.6,42.7-36.6c13.9,0,26.6,4.9,32.3,8.9c4.9,3.5,5.4,7.7,2.8,12.6l-4,7.9
		c-3.3,6.5-7.9,5.5-12.6,3.2c-5.5-2.7-11-5.5-18.9-5.5c-9.2,0-13.1,3.7-13.1,8.4c0,17.4,52.9,13.2,52.9,51c0,20.1-15.1,37.3-42,37.3
		c-16.7,0-31.6-6.9-38-11.9C696.3,936.3,693.8,932.6,698.2,926.4z"/>
</g>
<g>
	<path class="st2" d="M807.6,836.4c0-3.7,1.8-5.5,5.5-5.5h54.1c3.5,0,5.5,1.8,5.5,5.5v3.3c0,3.5-2,5.5-5.5,5.5H824v38.8h35.8
		c3.7,0,5.5,2,5.5,5.5v3.3c0,3.7-1.8,5.5-5.5,5.5H824v45c0,3.7-1.8,5.5-5.5,5.5h-5.4c-3.7,0-5.5-1.8-5.5-5.5V836.4z"/>
	<path class="st2" d="M892.1,836.4c0-3.7,1.8-5.5,5.5-5.5h5.4c3.7,0,5.5,1.8,5.5,5.5v107.1c0,3.7-1.8,5.5-5.5,5.5h-5.4
		c-3.7,0-5.5-1.8-5.5-5.5V836.4z"/>
	<path class="st2" d="M938.7,836.4c0-3.7,1.8-5.5,5.5-5.5h33.6c36,0,59.9,21.6,59.9,58.9c0,37.5-23.9,59.2-59.9,59.2h-33.6
		c-3.7,0-5.5-1.8-5.5-5.5V836.4z M976.6,934.6c26.6,0,44-15.7,44-44.8c0-29-17.6-44.5-44-44.5h-21.6v89.4H976.6z"/>
	<path class="st2" d="M1113.9,828.9c35.1,0,60.6,26.3,60.6,60.2c0,34.8-25.4,61.9-60.6,61.9c-35.1,0-60.7-27.1-60.7-61.9
		C1053.1,855.2,1078.7,828.9,1113.9,828.9z M1113.9,935.8c25.1,0,43.5-20.2,43.5-46.7c0-25.6-18.4-45-43.5-45
		c-25.1,0-43.7,19.4-43.7,45C1070.2,915.6,1088.8,935.8,1113.9,935.8z"/>
</g>
</svg>
